<?xml version="1.0" encoding="iso-8859-1"?>
<!-- Generator: Adobe Illustrator 22.0.1, SVG Export Plug-In . SVG Version: 6.00 Build 0)  -->
<svg version="1.1" id="Layer_1_1_" xmlns="http://www.w3.org/2000/svg" xmlns:xlink="http://www.w3.org/1999/xlink" x="0px" y="0px"
	 viewBox="0 0 96 96" style="enable-background:new 0 0 96 96;" xml:space="preserve">
<path style="fill:#DDEBE0;" d="M88.627,70.534L61,36V13h3V3H32v10h3v23L7.373,70.534C4.542,74.072,3,78.469,3,83v0
	c0,5.523,4.477,10,10,10h70c5.523,0,10-4.477,10-10v0C93,78.469,91.458,74.072,88.627,70.534z"/>
<path style="fill:#78807A;" d="M3,83L3,83c0,5.523,4.477,10,10,10h70c5.523,0,10-4.477,10-10v0c0-1.01-0.089-2.011-0.239-3H3.239
	C3.089,80.989,3,81.99,3,83z"/>
<circle style="fill:#7AE8FF;" cx="14" cy="86.5" r="2"/>
<circle style="fill:#7AE8FF;" cx="43" cy="86" r="2"/>
<circle style="fill:#7AE8FF;" cx="80" cy="86" r="2"/>
<path style="fill:#3BDD69;" d="M26,72L26,72c-4.418,0-8-3.582-8-8v0h0C22.418,64,26,67.582,26,72L26,72z"/>
<path style="fill:#3BDD69;" d="M26,72L26,72c0-4.418,3.582-8,8-8h0v0C34,68.418,30.418,72,26,72L26,72z"/>
<path style="fill:#3BDD69;" d="M48,72L48,72c-4.418,0-8-3.582-8-8v0h0C44.418,64,48,67.582,48,72L48,72z"/>
<path style="fill:#3BDD69;" d="M48,72L48,72c0-4.418,3.582-8,8-8h0v0C56,68.418,52.418,72,48,72L48,72z"/>
<path style="fill:#3BDD69;" d="M70,72L70,72c-4.418,0-8-3.582-8-8v0h0C66.418,64,70,67.582,70,72L70,72z"/>
<path style="fill:#3BDD69;" d="M70,72L70,72c0-4.418,3.582-8,8-8h0v0C78,68.418,74.418,72,70,72L70,72z"/>
<path d="M64,14c0.553,0,1-0.448,1-1V3c0-0.552-0.447-1-1-1H32c-0.553,0-1,0.448-1,1v10c0,0.552,0.447,1,1,1h2v21.649L6.592,69.909
	C3.631,73.61,2,78.26,2,83c0,6.065,4.935,11,11,11h70c6.065,0,11-4.935,11-11c0-4.74-1.631-9.39-4.592-13.091L62,35.649V14H64z
	 M83,92H13c-4.962,0-9-4.037-9-9c0-0.67,0.049-1.337,0.12-2H91.88c0.071,0.663,0.12,1.33,0.12,2C92,87.963,87.963,92,83,92z
	 M60.219,36.625l27.627,34.534c1.835,2.293,3.089,4.992,3.707,7.841H71v-6.059c4.493-0.499,8-4.316,8-8.941c0-0.553-0.447-1-1-1
	c-3.484,0-6.505,1.993-8,4.895C68.505,64.993,65.484,63,62,63c-0.553,0-1,0.447-1,1c0,4.625,3.507,8.442,8,8.941V79H49v-6.059
	c4.493-0.499,8-4.316,8-8.941c0-0.553-0.447-1-1-1c-3.484,0-6.505,1.993-8,4.895C46.505,64.993,43.484,63,40,63
	c-0.553,0-1,0.447-1,1c0,4.625,3.507,8.442,8,8.941V79H27v-6.059c4.493-0.499,8-4.316,8-8.941c0-0.553-0.447-1-1-1
	c-3.484,0-6.505,1.993-8,4.895C24.505,64.993,21.484,63,18,63c-0.553,0-1,0.447-1,1c0,4.625,3.507,8.442,8,8.941V79H4.447
	c0.618-2.849,1.872-5.548,3.707-7.841l27.627-34.534C35.923,36.447,36,36.228,36,36V13c0-0.552-0.447-1-1-1h-2V4h30v8h-2
	c-0.553,0-1,0.448-1,1v23C60,36.228,60.077,36.447,60.219,36.625z M71.084,70.916c0.467-2.994,2.838-5.365,5.832-5.832
	C76.449,68.078,74.078,70.449,71.084,70.916z M68.916,70.916c-2.994-0.467-5.365-2.838-5.832-5.832
	C66.078,65.551,68.449,67.922,68.916,70.916z M49.084,70.916c0.467-2.994,2.838-5.365,5.832-5.832
	C54.449,68.078,52.078,70.449,49.084,70.916z M46.916,70.916c-2.994-0.467-5.365-2.838-5.832-5.832
	C44.078,65.551,46.449,67.922,46.916,70.916z M27.084,70.916c0.467-2.994,2.838-5.365,5.832-5.832
	C32.449,68.078,30.078,70.449,27.084,70.916z M24.916,70.916c-2.994-0.467-5.365-2.838-5.832-5.832
	C22.078,65.551,24.449,67.922,24.916,70.916z"/>
<path d="M14,83.5c-1.654,0-3,1.346-3,3s1.346,3,3,3s3-1.346,3-3S15.654,83.5,14,83.5z M14,87.5c-0.551,0-1-0.448-1-1s0.449-1,1-1
	s1,0.448,1,1S14.551,87.5,14,87.5z"/>
<path d="M43,83c-1.654,0-3,1.346-3,3s1.346,3,3,3s3-1.346,3-3S44.654,83,43,83z M43,87c-0.552,0-1-0.448-1-1s0.448-1,1-1
	s1,0.448,1,1S43.552,87,43,87z"/>
<path d="M80,83c-1.654,0-3,1.346-3,3s1.346,3,3,3s3-1.346,3-3S81.654,83,80,83z M80,87c-0.552,0-1-0.448-1-1s0.448-1,1-1
	s1,0.448,1,1S80.552,87,80,87z"/>
<rect x="66" y="84" width="2" height="2"/>
<rect x="28" y="88" width="2" height="2"/>
<rect x="20" y="83" width="2" height="2"/>
<rect x="54" y="88" width="2" height="2"/>
<rect x="38" y="12" width="16" height="2"/>
<rect x="56" y="12" width="2" height="2"/>
<rect x="90" y="2" width="2" height="2"/>
<rect x="90" y="6" width="2" height="2"/>
<rect x="92" y="4" width="2" height="2"/>
<rect x="88" y="4" width="2" height="2"/>
<rect x="78" y="29" width="2" height="2"/>
<rect x="78" y="33" width="2" height="2"/>
<rect x="80" y="31" width="2" height="2"/>
<rect x="76" y="31" width="2" height="2"/>
<rect x="20" y="26" width="2" height="2"/>
<rect x="20" y="30" width="2" height="2"/>
<rect x="22" y="28" width="2" height="2"/>
<rect x="18" y="28" width="2" height="2"/>
<rect x="4" y="7" width="2" height="2"/>
<rect x="4" y="11" width="2" height="2"/>
<rect x="6" y="9" width="2" height="2"/>
<rect x="2" y="9" width="2" height="2"/>
</svg>
